<svg width="16" height="4" viewBox="0 0 16 4" fill="none" xmlns="http://www.w3.org/2000/svg">
<path d="M3.25 2C3.25 2.33152 3.1183 2.64946 2.88388 2.88388C2.64946 3.1183 2.33152 3.25 2 3.25C1.66848 3.25 1.35054 3.1183 1.11612 2.88388C0.881696 2.64946 0.75 2.33152 0.75 2C0.75 1.66848 0.881696 1.35054 1.11612 1.11612C1.35054 0.881696 1.66848 0.75 2 0.75C2.33152 0.75 2.64946 0.881696 2.88388 1.11612C3.1183 1.35054 3.25 1.66848 3.25 2Z" fill="#ADADAD"/>
<path d="M9.25 2C9.25 2.33152 9.1183 2.64946 8.88388 2.88388C8.64946 3.1183 8.33152 3.25 8 3.25C7.66848 3.25 7.35054 3.1183 7.11612 2.88388C6.8817 2.64946 6.75 2.33152 6.75 2C6.75 1.66848 6.8817 1.35054 7.11612 1.11612C7.35054 0.881696 7.66848 0.75 8 0.75C8.33152 0.75 8.64946 0.881696 8.88388 1.11612C9.1183 1.35054 9.25 1.66848 9.25 2Z" fill="#ADADAD"/>
<path d="M14 3.25C14.3315 3.25 14.6495 3.1183 14.8839 2.88388C15.1183 2.64946 15.25 2.33152 15.25 2C15.25 1.66848 15.1183 1.35054 14.8839 1.11612C14.6495 0.881696 14.3315 0.75 14 0.75C13.6685 0.75 13.3505 0.881696 13.1161 1.11612C12.8817 1.35054 12.75 1.66848 12.75 2C12.75 2.33152 12.8817 2.64946 13.1161 2.88388C13.3505 3.1183 13.6685 3.25 14 3.25Z" fill="#ADADAD"/>
</svg>
