<svg width="6" height="4" viewBox="0 0 6 4" fill="none" xmlns="http://www.w3.org/2000/svg">
<path d="M3 4C2.87238 3.99943 2.7465 3.97361 2.6315 3.92441C2.5165 3.87521 2.41526 3.80386 2.33513 3.71556L0.230539 1.44889C0.10756 1.31243 0.030171 1.148 0.00719106 0.974342C-0.0157889 0.800681 0.0165644 0.624774 0.100564 0.466667C0.168691 0.329256 0.279866 0.212184 0.420812 0.129432C0.561757 0.0466808 0.726516 0.00174802 0.89541 0H5.10459C5.27348 0.00174802 5.43824 0.0466808 5.57919 0.129432C5.72013 0.212184 5.83131 0.329256 5.89944 0.466667C5.98344 0.624774 6.01579 0.800681 5.99281 0.974342C5.96983 1.148 5.89244 1.31243 5.76946 1.44889L3.66487 3.71556C3.58474 3.80386 3.4835 3.87521 3.3685 3.92441C3.2535 3.97361 3.12762 3.99943 3 4Z" fill="#333333"/>
</svg>
