<svg width="16" height="14" viewBox="0 0 16 14" fill="none" xmlns="http://www.w3.org/2000/svg">
<path d="M4.53141 10.3724L5.46887 9.2708L2.45101 7.00071L5.46887 4.73061L4.53141 3.62905L0.781589 6.44993C0.693727 6.516 0.622797 6.5998 0.574053 6.69515C0.525309 6.79049 0.5 6.89492 0.5 7.00071C0.5 7.10649 0.525309 7.21092 0.574053 7.30626C0.622797 7.40161 0.693727 7.48541 0.781589 7.55148L4.53141 10.3724ZM11.4686 3.62905L10.5311 4.73061L13.549 7.00071L10.5311 9.2708L11.4686 10.3724L15.2184 7.55148C15.3063 7.48541 15.3772 7.40161 15.4259 7.30626C15.4747 7.21092 15.5 7.10649 15.5 7.00071C15.5 6.89492 15.4747 6.79049 15.4259 6.69515C15.3772 6.5998 15.3063 6.516 15.2184 6.44993L11.4686 3.62905ZM10.2319 0.806065L7.23204 13.5L5.76735 13.1939L8.76721 0.5L10.2319 0.806065Z" fill="#727272"/>
</svg>
