<svg width="16" height="14" viewBox="0 0 16 14" fill="none" xmlns="http://www.w3.org/2000/svg">
<path fill-rule="evenodd" clip-rule="evenodd" d="M8.00055 3.14791C10.3213 3.14803 12.5544 4.13804 14.2365 5.91327C14.3638 6.05036 14.5662 6.0487 14.6904 5.90948L15.9019 4.55286C15.9656 4.48231 16 4.3867 16 4.28719C15.999 4.18768 15.9635 4.09243 15.8988 4.0227C11.4827 -0.674233 4.51629 -0.674233 0.100207 4.0227C0.0365535 4.09243 2.2377e-05 4.18756 2.2377e-05 4.28707C-0.00102112 4.38658 0.0344762 4.48219 0.0970861 4.55286L1.30857 5.90948C1.43379 6.04882 1.63622 6.05059 1.76249 5.91327C3.44565 4.13793 5.67877 3.14791 8.00055 3.14791ZM7.99845 7.55092C9.27569 7.5508 10.507 8.09043 11.4535 9.06484C11.5818 9.20323 11.7832 9.20016 11.9074 9.05811L13.1189 7.66698C13.1826 7.59394 13.218 7.49502 13.217 7.39209C13.216 7.28927 13.1794 7.19106 13.1137 7.11956C10.2315 4.07127 5.76746 4.07127 2.88531 7.11956C2.82062 7.19106 2.78305 7.28927 2.78201 7.3922C2.78096 7.49514 2.81644 7.59406 2.88114 7.66698L4.0916 9.05811C4.21578 9.20016 4.41822 9.20323 4.54552 9.06484C5.49198 8.09102 6.72225 7.55151 7.99845 7.55092ZM10.434 10.7697C10.436 10.8707 10.4006 10.9681 10.3359 11.0388L8.23324 13.392C8.17168 13.4611 8.08716 13.5 7.9995 13.5C7.91185 13.5 7.82834 13.4611 7.76678 13.392L5.66414 11.0388C5.5984 10.9679 5.56292 10.8706 5.56501 10.7696C5.5671 10.6686 5.60675 10.573 5.67354 10.5053C7.01652 9.24578 8.98353 9.24578 10.3255 10.5053C10.3933 10.5731 10.4329 10.6687 10.434 10.7697Z" fill="#727272"/>
</svg>
