<svg width="14" height="14" viewBox="0 0 14 14" fill="none" xmlns="http://www.w3.org/2000/svg">
<path d="M7 0.5C7.21549 0.5 7.42215 0.585603 7.57452 0.737976C7.7269 0.890349 7.8125 1.09701 7.8125 1.3125V6.1875H12.6875C12.903 6.1875 13.1097 6.2731 13.262 6.42548C13.4144 6.57785 13.5 6.78451 13.5 7C13.5 7.21549 13.4144 7.42215 13.262 7.57452C13.1097 7.7269 12.903 7.8125 12.6875 7.8125H7.8125V12.6875C7.8125 12.903 7.7269 13.1097 7.57452 13.262C7.42215 13.4144 7.21549 13.5 7 13.5C6.78451 13.5 6.57785 13.4144 6.42548 13.262C6.2731 13.1097 6.1875 12.903 6.1875 12.6875V7.8125H1.3125C1.09701 7.8125 0.890349 7.7269 0.737976 7.57452C0.585603 7.42215 0.5 7.21549 0.5 7C0.5 6.78451 0.585603 6.57785 0.737976 6.42548C0.890349 6.2731 1.09701 6.1875 1.3125 6.1875H6.1875V1.3125C6.1875 1.09701 6.2731 0.890349 6.42548 0.737976C6.57785 0.585603 6.78451 0.5 7 0.5Z" fill="#727272"/>
</svg>
