<svg width="14" height="14" viewBox="0 0 14 14" fill="none" xmlns="http://www.w3.org/2000/svg">
<path d="M7.00685 0.5C7.4962 0.505333 7.98355 0.562002 8.46156 0.668671C8.56326 0.691372 8.65532 0.745275 8.72488 0.822849C8.79445 0.900423 8.83804 0.997792 8.84957 1.10135L8.96291 2.11938C8.97891 2.26291 9.02838 2.40067 9.10734 2.52159C9.18629 2.64252 9.29253 2.74321 9.4175 2.81559C9.54247 2.88797 9.68269 2.93 9.82687 2.9383C9.97104 2.9466 10.1152 2.92095 10.2476 2.8634L11.1816 2.45339C11.2765 2.41162 11.3819 2.40035 11.4835 2.42113C11.585 2.44191 11.6775 2.49372 11.7483 2.56939C12.423 3.29014 12.9254 4.15451 13.2177 5.09746C13.2483 5.19655 13.2474 5.30273 13.2151 5.40128C13.1827 5.49982 13.1205 5.58586 13.037 5.64748L12.209 6.25816C12.0926 6.34369 11.9979 6.45543 11.9326 6.58434C11.8674 6.71324 11.8334 6.8557 11.8334 7.00018C11.8334 7.14466 11.8674 7.28712 11.9326 7.41602C11.9979 7.54493 12.0926 7.65667 12.209 7.7422L13.0377 8.35222C13.1214 8.41379 13.1838 8.4999 13.2163 8.59859C13.2488 8.69728 13.2498 8.80365 13.219 8.9029C12.9266 9.84581 12.4242 10.7102 11.7497 11.431C11.679 11.5065 11.5868 11.5582 11.4855 11.5791C11.3843 11.6 11.279 11.589 11.1843 11.5476L10.2463 11.1363C10.114 11.0783 9.96993 11.0523 9.82572 11.0603C9.68151 11.0683 9.54121 11.1102 9.41619 11.1825C9.29116 11.2548 9.18492 11.3555 9.10606 11.4765C9.02719 11.5975 8.97793 11.7354 8.96224 11.879L8.84957 12.8963C8.83821 12.9988 8.79548 13.0952 8.72721 13.1724C8.65895 13.2496 8.5685 13.3039 8.46823 13.3277C7.50257 13.5574 6.49647 13.5574 5.53081 13.3277C5.43054 13.3039 5.34009 13.2496 5.27183 13.1724C5.20356 13.0952 5.16083 12.9988 5.14947 12.8963L5.03747 11.8803C5.02113 11.7371 4.97143 11.5997 4.89234 11.4792C4.81325 11.3587 4.70699 11.2584 4.5821 11.1864C4.45721 11.1145 4.31718 11.0728 4.17326 11.0648C4.02933 11.0568 3.88554 11.0826 3.75343 11.1403L2.81607 11.551C2.72125 11.5925 2.61588 11.6036 2.5145 11.5827C2.41312 11.5618 2.32072 11.5099 2.25005 11.4343C1.57517 10.7127 1.07278 9.84741 0.78068 8.90357C0.749943 8.80431 0.75089 8.69795 0.783388 8.59926C0.815886 8.50057 0.878322 8.41446 0.962018 8.35288L1.79071 7.7422C1.90728 7.65675 2.00207 7.54504 2.06742 7.41613C2.13276 7.28721 2.16681 7.14471 2.16681 7.00018C2.16681 6.85565 2.13276 6.71315 2.06742 6.58423C2.00207 6.45532 1.90728 6.34361 1.79071 6.25816L0.962018 5.64881C0.87844 5.58715 0.816137 5.501 0.78376 5.40231C0.751383 5.30363 0.750539 5.19731 0.781346 5.09813C1.0737 4.15518 1.57609 3.29082 2.25072 2.57006C2.32151 2.49439 2.41407 2.44258 2.51559 2.4218C2.6171 2.40101 2.72257 2.41229 2.8174 2.45405L3.75076 2.86407C3.88345 2.92158 4.02777 2.94718 4.17214 2.93879C4.31651 2.93041 4.4569 2.88828 4.58203 2.81579C4.70717 2.74331 4.81356 2.64248 4.89265 2.52142C4.97175 2.40035 5.02135 2.26242 5.03747 2.11871L5.1508 1.10135C5.16224 0.997584 5.20587 0.9 5.27558 0.822285C5.34528 0.74457 5.43756 0.690621 5.53948 0.668005C6.01749 0.562002 6.50617 0.506 7.00685 0.5ZM6.99885 5.00012C6.46841 5.00012 5.95968 5.21084 5.5846 5.58593C5.20952 5.96101 4.9988 6.46973 4.9988 7.00018C4.9988 7.53063 5.20952 8.03935 5.5846 8.41443C5.95968 8.78952 6.46841 9.00024 6.99885 9.00024C7.5293 9.00024 8.03802 8.78952 8.41311 8.41443C8.78819 8.03935 8.99891 7.53063 8.99891 7.00018C8.99891 6.46973 8.78819 5.96101 8.41311 5.58593C8.03802 5.21084 7.5293 5.00012 6.99885 5.00012Z" fill="#727272"/>
</svg>
