<svg width="5" height="4" viewBox="0 0 5 4" fill="none" xmlns="http://www.w3.org/2000/svg">
<path d="M2.5 3.625C2.39631 3.62454 2.29403 3.60355 2.2006 3.56358C2.10716 3.52361 2.0249 3.46564 1.95979 3.39389L0.249813 1.55222C0.149893 1.44135 0.087014 1.30775 0.0683427 1.16665C0.0496715 1.02555 0.0759585 0.882629 0.144208 0.754167C0.199561 0.642521 0.289891 0.547399 0.404409 0.480164C0.518928 0.412928 0.652794 0.37642 0.79002 0.375H4.20998C4.34721 0.37642 4.48107 0.412928 4.59559 0.480164C4.71011 0.547399 4.80044 0.642521 4.85579 0.754167C4.92404 0.882629 4.95033 1.02555 4.93166 1.16665C4.91299 1.30775 4.85011 1.44135 4.75019 1.55222L3.04021 3.39389C2.9751 3.46564 2.89284 3.52361 2.7994 3.56358C2.70597 3.60355 2.60369 3.62454 2.5 3.625Z" fill="#727272"/>
</svg>
