<svg width="14" height="14" viewBox="0 0 14 14" fill="none" xmlns="http://www.w3.org/2000/svg">
<path d="M1.8 4.4H1.98571C2.70071 4.4 3.28571 4.985 3.28571 5.7V12.2C3.28571 12.915 2.70071 13.5 1.98571 13.5H1.8C1.085 13.5 0.5 12.915 0.5 12.2V5.7C0.5 4.985 1.085 4.4 1.8 4.4ZM7 0.5C7.715 0.5 8.3 1.085 8.3 1.8V12.2C8.3 12.915 7.715 13.5 7 13.5C6.285 13.5 5.7 12.915 5.7 12.2V1.8C5.7 1.085 6.285 0.5 7 0.5ZM12.2 7.92857C12.915 7.92857 13.5 8.51357 13.5 9.22857V12.2C13.5 12.915 12.915 13.5 12.2 13.5C11.485 13.5 10.9 12.915 10.9 12.2V9.22857C10.9 8.51357 11.485 7.92857 12.2 7.92857Z" fill="#727272"/>
</svg>
