<svg width="11" height="16" viewBox="0 0 11 16" fill="none" xmlns="http://www.w3.org/2000/svg">
<path d="M1.62286 3.24571C0.726579 3.24571 0 2.51914 0 1.62286C0 0.726578 0.726578 0 1.62286 0H9C10.1046 0 11 0.895431 11 2V14C11 15.1046 10.1046 16 9 16H5.99756C4.89299 16 3.99756 15.1046 3.99756 14V5.2445C3.99756 4.1406 3.10268 3.24571 1.99878 3.24571H1.62286Z" fill="white"/>
<path d="M1.62286 3.24571C0.726579 3.24571 0 2.51914 0 1.62286C0 0.726578 0.726578 0 1.62286 0H9C10.1046 0 11 0.895431 11 2V14C11 15.1046 10.1046 16 9 16H5.99756C4.89299 16 3.99756 15.1046 3.99756 14V5.2445C3.99756 4.1406 3.10268 3.24571 1.99878 3.24571H1.62286Z" fill="url(#paint0_linear)"/>
<defs>
<linearGradient id="paint0_linear" x1="5.5" y1="0" x2="5.5" y2="16" gradientUnits="userSpaceOnUse">
<stop stop-color="#8F00FF"/>
<stop offset="1" stop-color="#00B2FF"/>
</linearGradient>
</defs>
</svg>
